<?xml version="1.0" standalone="no"?>
<!DOCTYPE svg PUBLIC "-//W3C//DTD SVG 20010904//EN"
 "http://www.w3.org/TR/2001/REC-SVG-20010904/DTD/svg10.dtd">
<svg version="1.0" xmlns="http://www.w3.org/2000/svg"
 width="192.000000pt" height="192.000000pt" viewBox="0 0 192.000000 192.000000"
 preserveAspectRatio="xMidYMid meet">

<g transform="translate(0.000000,192.000000) scale(0.100000,-0.100000)"
fill="#000000" stroke="none">
<path d="M0 960 l0 -960 960 0 960 0 0 960 0 960 -960 0 -960 0 0 -960z m494
579 c3 -17 6 -247 6 -511 l0 -480 -27 7 c-41 10 -71 32 -93 68 -19 30 -20 54
-20 490 l0 457 64 0 c63 0 64 0 70 -31z m228 -369 c2 -220 0 -400 -4 -400 -27
0 -92 37 -111 64 -22 30 -22 37 -25 370 -2 186 -1 345 2 352 4 10 25 14 70 14
l66 0 2 -400z m218 126 c0 -151 3 -281 6 -290 16 -42 -97 8 -121 54 -12 24
-15 74 -15 270 l0 240 65 0 65 0 0 -274z m230 92 c6 -198 9 -191 -64 -149 -61
34 -71 60 -75 202 l-3 130 68 -3 69 -3 5 -177z m222 120 c2 -35 3 -64 3 -65
-1 -1 -17 2 -37 8 -41 11 -98 69 -98 99 0 18 7 20 64 20 l64 0 4 -62z m106
-108 c62 -38 62 -40 62 -560 l0 -471 -67 3 -68 3 -3 523 -2 522 22 0 c13 0 38
-9 56 -20z m-227 -228 c15 -8 35 -29 45 -46 18 -29 19 -56 19 -391 l0 -360
-67 -3 -68 -3 -2 415 -3 415 25 -6 c14 -3 37 -12 51 -21z m-248 -216 c18 -7
43 -26 57 -40 l25 -28 3 -259 3 -259 -66 0 -65 0 0 284 c0 156 -3 291 -6 300
-8 20 7 20 49 2z m-202 -229 c59 -39 70 -74 67 -222 l-3 -130 -65 0 -65 0 -3
188 c-2 177 -1 187 16 187 11 0 34 -10 53 -23z m-236 -211 c41 -18 75 -69 75
-113 l0 -33 -64 0 -64 0 -4 80 c-3 88 -2 90 57 66z"/>
</g>
</svg>
